<svg xmlns="http://www.w3.org/2000/svg" viewBox="0 0 640 420"><defs><linearGradient id="sea" x2="0" y2="1"><stop stop-color="#c5f5ea"/><stop offset="1" stop-color="#3faebd"/></linearGradient><linearGradient id="sand" x2="0" y2="1"><stop stop-color="#fff0b5"/><stop offset="1" stop-color="#d8b379"/></linearGradient><g id="block"><path d="M0 0 42-22 84 0 42 23Z" fill="currentColor"/><path d="M0 0 42 23 42 57 0 34Z" fill="currentColor"/><path d="M42 23 84 0 84 34 42 57Z" fill="currentColor"/><path d="M0 0 42 23 42 57 0 34Z" fill="#fff" opacity=".12"/><path d="M42 23 84 0 84 34 42 57Z" fill="#10444d" opacity=".2"/><path d="M7 0 42-18 77 0 42 19Z" fill="#fff" opacity=".25"/></g></defs><rect width="640" height="420" fill="url(#sea)"/><circle cx="533" cy="84" r="54" fill="#fff0b8" opacity=".9"/><g fill="none" stroke="#e8ffff" opacity=".35"><ellipse cx="322" cy="328" rx="260" ry="60"/><ellipse cx="322" cy="328" rx="231" ry="48"/></g><path d="m82 266 234-119 239 118v45L322 423 82 310Z" fill="url(#sand)"/><path d="m80 264 236-122 241 119-235 122Z" fill="#a9dda0"/><path d="m105 261 212-109 213 109-209 109Z" fill="#f2ecc8"/><g transform="translate(146 238)"><use href="#block" color="#35c7b0"/><use href="#block" x="42" y="-22" color="#35c7b0"/><use href="#block" x="84" y="-44" color="#35c7b0"/><use href="#block" x="42" y="22" color="#ffc94b"/><use href="#block" x="84" y="0" color="#ffc94b"/><use href="#block" x="84" y="44" color="#ffc94b"/><use href="#block" x="126" y="22" color="#ffc94b"/><use href="#block" x="168" y="0" color="#ff7966"/><use href="#block" x="210" y="-22" color="#ff7966"/><use href="#block" x="210" y="22" color="#ff7966"/><use href="#block" x="126" y="-66" color="#a48af0"/><use href="#block" x="168" y="-88" color="#a48af0"/></g><path d="m106 224 10-83 13 1-6 87Z" fill="#c49364"/><g fill="#3ca891"><path d="M122 147Q72 102 54 145Q87 132 122 158Z"/><path d="M121 151Q129 91 163 100Q145 111 125 164Z"/><path d="M120 148Q175 119 182 161Q150 139 121 161Z"/></g><g fill="#fff7ba"><path d="m465 171 5-14 5 14 14 5-14 5-5 14-5-14-14-5Z"/><path d="m219 96 3-10 4 10 10 3-10 4-4 10-3-10-10-4Z"/></g></svg>
